<?xml version="1.0" standalone="no"?><!DOCTYPE svg PUBLIC "-//W3C//DTD SVG 1.1//EN" "http://www.w3.org/Graphics/SVG/1.1/DTD/svg11.dtd"><svg t="1719730828740" class="icon" viewBox="0 0 1024 1024" version="1.1" xmlns="http://www.w3.org/2000/svg" p-id="1470" xmlns:xlink="http://www.w3.org/1999/xlink" width="200" height="200"><path d="M225.273126 373.052285L475.412585 122.912825v718.236693a36.570096 36.570096 0 0 0 73.140193 0V127.301237l245.751047 245.751048a36.570096 36.570096 0 1 0 51.929537-51.929537L542.701562 17.590948A35.838694 35.838694 0 0 0 511.982681 0.037301a36.570096 36.570096 0 0 0-27.061871 10.239627L173.343589 321.122748a36.570096 36.570096 0 0 0 51.929537 51.929537z" p-id="1471"></path><path d="M914.253742 731.439229v219.420578H109.711621v-219.420578H36.571429v219.420578a73.140193 73.140193 0 0 0 73.140192 73.140193h804.542121a73.140193 73.140193 0 0 0 73.140192-73.140193v-219.420578z" p-id="1472"></path></svg>